<svg width="24" height="25" viewBox="0 0 24 25" fill="none" xmlns="http://www.w3.org/2000/svg">
<path fill-rule="evenodd" clip-rule="evenodd" d="M7.969 3.75H8.667C8.86591 3.75 9.05668 3.82902 9.19733 3.96967C9.33798 4.11032 9.417 4.30109 9.417 4.5C9.417 4.69891 9.33798 4.88968 9.19733 5.03033C9.05668 5.17098 8.86591 5.25 8.667 5.25H8C7.288 5.25 6.798 5.25 6.42 5.282C6.049 5.312 5.85 5.367 5.706 5.441C5.3766 5.6088 5.1088 5.8766 4.941 6.206C4.867 6.35 4.811 6.549 4.781 6.919C4.751 7.299 4.75 7.788 4.75 8.5V9.167C4.75 9.36591 4.67098 9.55668 4.53033 9.69733C4.38968 9.83798 4.19891 9.917 4 9.917C3.80109 9.917 3.61032 9.83798 3.46967 9.69733C3.32902 9.55668 3.25 9.36591 3.25 9.167V8.469C3.25 7.795 3.25 7.245 3.287 6.797C3.324 6.334 3.405 5.915 3.604 5.525C3.91556 4.91363 4.41263 4.41656 5.024 4.105C5.415 3.905 5.834 3.825 6.297 3.787C6.745 3.75 7.295 3.75 7.969 3.75ZM17.581 5.282C17.2 5.25 16.712 5.25 16 5.25H15.333C15.1341 5.25 14.9433 5.17098 14.8027 5.03033C14.662 4.88968 14.583 4.69891 14.583 4.5C14.583 4.30109 14.662 4.11032 14.8027 3.96967C14.9433 3.82902 15.1341 3.75 15.333 3.75H16.031C16.705 3.75 17.256 3.75 17.703 3.787C18.166 3.824 18.585 3.905 18.976 4.104C19.5874 4.41556 20.0844 4.91263 20.396 5.524C20.595 5.915 20.676 6.334 20.713 6.797C20.75 7.244 20.75 7.795 20.75 8.469V9.167C20.75 9.36591 20.671 9.55668 20.5303 9.69733C20.3897 9.83798 20.1989 9.917 20 9.917C19.8011 9.917 19.6103 9.83798 19.4697 9.69733C19.329 9.55668 19.25 9.36591 19.25 9.167V8.5C19.25 7.788 19.25 7.298 19.218 6.92C19.188 6.549 19.133 6.35 19.059 6.206C18.8912 5.8766 18.6234 5.6088 18.294 5.441C18.15 5.367 17.951 5.312 17.581 5.282ZM4 15.083C4.19891 15.083 4.38968 15.162 4.53033 15.3027C4.67098 15.4433 4.75 15.6341 4.75 15.833V16.5C4.75 17.212 4.75 17.702 4.782 18.08C4.812 18.451 4.867 18.65 4.941 18.795C5.109 19.124 5.376 19.391 5.706 19.559C5.85 19.633 6.049 19.689 6.419 19.719C6.799 19.749 7.288 19.75 8 19.75H8.667C8.86591 19.75 9.05668 19.829 9.19733 19.9697C9.33798 20.1103 9.417 20.3011 9.417 20.5C9.417 20.6989 9.33798 20.8897 9.19733 21.0303C9.05668 21.171 8.86591 21.25 8.667 21.25H7.969C7.295 21.25 6.744 21.25 6.297 21.213C5.834 21.176 5.415 21.095 5.025 20.896C4.41363 20.5844 3.91656 20.0874 3.605 19.476C3.405 19.085 3.325 18.666 3.287 18.203C3.25 17.756 3.25 17.205 3.25 16.531V15.833C3.25 15.6341 3.32902 15.4433 3.46967 15.3027C3.61032 15.162 3.80109 15.083 4 15.083ZM20 15.083C20.1989 15.083 20.3897 15.162 20.5303 15.3027C20.671 15.4433 20.75 15.6341 20.75 15.833V16.531C20.75 17.205 20.75 17.756 20.713 18.203C20.676 18.666 20.595 19.085 20.396 19.476C20.0844 20.0874 19.5874 20.5844 18.976 20.896C18.585 21.095 18.166 21.176 17.703 21.213C17.256 21.25 16.705 21.25 16.031 21.25H15.333C15.1341 21.25 14.9433 21.171 14.8027 21.0303C14.662 20.8897 14.583 20.6989 14.583 20.5C14.583 20.3011 14.662 20.1103 14.8027 19.9697C14.9433 19.829 15.1341 19.75 15.333 19.75H16C16.712 19.75 17.202 19.75 17.58 19.718C17.951 19.688 18.15 19.633 18.295 19.559C18.624 19.391 18.8915 19.1232 19.059 18.794C19.133 18.65 19.189 18.451 19.219 18.081C19.249 17.701 19.25 17.212 19.25 16.5V15.833C19.25 15.6341 19.329 15.4433 19.4697 15.3027C19.6103 15.162 19.8011 15.083 20 15.083Z" fill="#FFE489"/>
<path fill-rule="evenodd" clip-rule="evenodd" d="M8.574 6.75H8.926C9.184 6.75 9.42 6.75 9.618 6.766C9.831 6.784 10.064 6.823 10.294 6.941C10.624 7.109 10.892 7.376 11.059 7.706C11.177 7.936 11.217 8.169 11.234 8.382C11.25 8.58 11.25 8.816 11.25 9.074V9.426C11.25 9.684 11.25 9.92 11.234 10.118C11.2204 10.3526 11.1609 10.5822 11.059 10.794C10.8915 11.1232 10.624 11.391 10.295 11.559C10.065 11.677 9.831 11.717 9.618 11.734C9.42 11.75 9.184 11.75 8.926 11.75H8.574C8.316 11.75 8.08 11.75 7.882 11.734C7.6474 11.7204 7.41775 11.6609 7.206 11.559C6.87675 11.3915 6.60897 11.124 6.441 10.795C6.33897 10.5829 6.27952 10.3529 6.266 10.118C6.25 9.92 6.25 9.684 6.25 9.426V9.074C6.25 8.816 6.25 8.58 6.266 8.382C6.27965 8.1474 6.3391 7.91775 6.441 7.706C6.6088 7.3766 6.8766 7.1088 7.206 6.941C7.41775 6.8391 7.6474 6.77965 7.882 6.766C8.08 6.75 8.316 6.75 8.574 6.75ZM7.882 8.279C7.92161 8.26889 7.96216 8.26286 8.003 8.261C8.133 8.251 8.307 8.25 8.599 8.25H8.899C9.191 8.25 9.366 8.25 9.495 8.261C9.53551 8.26293 9.57571 8.26896 9.615 8.279C9.65968 8.30229 9.69628 8.33854 9.72 8.383C9.73011 8.42261 9.73614 8.46316 9.738 8.504C9.748 8.634 9.749 8.808 9.749 9.1V9.4C9.749 9.692 9.749 9.867 9.738 9.996C9.73607 10.0365 9.73004 10.0767 9.72 10.116C9.69671 10.1607 9.66046 10.1973 9.616 10.221C9.57639 10.2311 9.53584 10.2371 9.495 10.239C9.365 10.249 9.191 10.25 8.899 10.25H8.599C8.307 10.25 8.132 10.25 8.003 10.239C7.96249 10.2371 7.92229 10.231 7.883 10.221C7.83832 10.1977 7.80172 10.1615 7.778 10.117C7.76789 10.0774 7.76186 10.0368 7.76 9.996C7.74926 9.79753 7.74593 9.59872 7.75 9.4V9.1C7.75 8.808 7.75 8.633 7.761 8.504C7.76293 8.46349 7.76896 8.42329 7.779 8.384C7.80229 8.33932 7.83754 8.30272 7.882 8.279ZM15.074 6.75H15.426C15.684 6.75 15.92 6.75 16.118 6.766C16.331 6.784 16.564 6.823 16.795 6.941C17.124 7.109 17.391 7.376 17.559 7.706C17.677 7.936 17.716 8.169 17.734 8.382C17.75 8.58 17.75 8.816 17.75 9.074V9.426C17.75 9.684 17.75 9.92 17.734 10.118C17.7204 10.3526 17.6609 10.5822 17.559 10.794C17.3912 11.1234 17.1234 11.3912 16.794 11.559C16.564 11.677 16.331 11.717 16.118 11.734C15.92 11.75 15.684 11.75 15.426 11.75H15.074C14.816 11.75 14.58 11.75 14.382 11.734C14.1474 11.7204 13.9177 11.6609 13.706 11.559C13.3768 11.3915 13.109 11.124 12.941 10.795C12.839 10.5829 12.7795 10.3529 12.766 10.118C12.75 9.92 12.75 9.684 12.75 9.426V9.074C12.75 8.816 12.75 8.58 12.766 8.382C12.7796 8.1474 12.8391 7.91775 12.941 7.706C13.1088 7.3766 13.3766 7.1088 13.706 6.941C13.9177 6.8391 14.1474 6.77965 14.382 6.766C14.58 6.75 14.816 6.75 15.074 6.75ZM14.383 8.279C14.4226 8.26889 14.4632 8.26286 14.504 8.261C14.634 8.251 14.808 8.25 15.1 8.25H15.4C15.692 8.25 15.867 8.25 15.996 8.261C16.0365 8.26293 16.0767 8.26896 16.116 8.279C16.1607 8.30229 16.1973 8.33854 16.221 8.383C16.2311 8.42261 16.2371 8.46316 16.239 8.504C16.249 8.634 16.25 8.808 16.25 9.1V9.4C16.25 9.692 16.25 9.867 16.239 9.996C16.2371 10.0365 16.231 10.0767 16.221 10.116C16.1974 10.1608 16.1608 10.1974 16.116 10.221C16.0767 10.231 16.0365 10.2371 15.996 10.239C15.866 10.249 15.692 10.25 15.4 10.25H15.1C14.808 10.25 14.633 10.25 14.504 10.239C14.4635 10.2371 14.4233 10.231 14.384 10.221C14.3393 10.1977 14.3027 10.1615 14.279 10.117C14.2689 10.0774 14.2629 10.0368 14.261 9.996C14.2499 9.79754 14.2463 9.59873 14.25 9.4V9.1C14.25 8.808 14.25 8.633 14.261 8.504C14.2629 8.46349 14.269 8.42329 14.279 8.384C14.3023 8.33932 14.3385 8.30272 14.383 8.279ZM8.574 13.25H8.926C9.184 13.25 9.42 13.25 9.618 13.266C9.831 13.284 10.064 13.323 10.294 13.441C10.624 13.608 10.892 13.876 11.059 14.206C11.177 14.436 11.217 14.669 11.234 14.882C11.25 15.08 11.25 15.316 11.25 15.574V15.926C11.25 16.184 11.25 16.42 11.234 16.618C11.2205 16.8529 11.161 17.0829 11.059 17.295C10.8913 17.6239 10.6239 17.8913 10.295 18.059C10.065 18.177 9.831 18.216 9.618 18.234C9.42 18.25 9.184 18.25 8.926 18.25H8.574C8.316 18.25 8.08 18.25 7.882 18.234C7.6474 18.2204 7.41775 18.1609 7.206 18.059C6.8766 17.8912 6.6088 17.6234 6.441 17.294C6.3391 17.0823 6.27965 16.8526 6.266 16.618C6.25 16.42 6.25 16.184 6.25 15.926V15.574C6.25 15.316 6.25 15.08 6.266 14.882C6.27965 14.6474 6.3391 14.4177 6.441 14.206C6.6088 13.8766 6.8766 13.6088 7.206 13.441C7.436 13.323 7.669 13.283 7.882 13.266C8.08 13.25 8.316 13.25 8.574 13.25ZM7.883 14.779C7.92261 14.7689 7.96316 14.7629 8.004 14.761C8.134 14.751 8.308 14.75 8.6 14.75H8.9C9.192 14.75 9.367 14.75 9.496 14.761C9.53651 14.7629 9.57671 14.769 9.616 14.779C9.66068 14.8023 9.69728 14.8385 9.721 14.883C9.73111 14.9226 9.73714 14.9632 9.739 15.004C9.749 15.134 9.75 15.308 9.75 15.6V15.9C9.75 16.192 9.75 16.367 9.739 16.496C9.73707 16.5365 9.73104 16.5767 9.721 16.616C9.69771 16.6607 9.66146 16.6973 9.617 16.721C9.57738 16.7311 9.53684 16.7371 9.496 16.739C9.366 16.749 9.192 16.75 8.9 16.75H8.6C8.308 16.75 8.133 16.75 8.004 16.739C7.96349 16.7371 7.92329 16.731 7.884 16.721C7.83917 16.6974 7.80256 16.6608 7.779 16.616C7.76896 16.5767 7.76293 16.5365 7.761 16.496C7.74993 16.2975 7.74626 16.0987 7.75 15.9V15.6C7.75 15.308 7.75 15.133 7.761 15.004C7.76293 14.9635 7.76896 14.9233 7.779 14.884C7.80229 14.8393 7.83854 14.8027 7.883 14.779ZM13.75 13.25C13.9489 13.25 14.1397 13.329 14.2803 13.4697C14.421 13.6103 14.5 13.8011 14.5 14V14.75C14.5 14.888 14.612 15 14.75 15H16.25C17.216 15 18 15.784 18 16.75V17.5C18 17.6989 17.921 17.8897 17.7803 18.0303C17.6397 18.171 17.4489 18.25 17.25 18.25C17.0511 18.25 16.8603 18.171 16.7197 18.0303C16.579 17.8897 16.5 17.6989 16.5 17.5V16.75C16.5 16.6837 16.4737 16.6201 16.4268 16.5732C16.3799 16.5263 16.3163 16.5 16.25 16.5H14.75C14.2859 16.5 13.8408 16.3156 13.5126 15.9874C13.1844 15.6592 13 15.2141 13 14.75V14C13 13.8011 13.079 13.6103 13.2197 13.4697C13.3603 13.329 13.5511 13.25 13.75 13.25Z" fill="#FFE489"/>
</svg>
